<svg width="81" height="59" viewBox="0 0 81 59" fill="none" xmlns="http://www.w3.org/2000/svg">
<path d="M0.350333 35.7339H24.173V28.0266H12.4118L18.2173 22.1711C21.4203 18.968 23.6725 15.3646 23.6725 11.1606C23.6725 4.1039 18.0672 0 11.8112 0C6.95661 0 2.25214 2.45233 0 7.65727L6.75642 11.611C7.70732 9.40894 9.45899 7.80742 11.9113 7.80742C14.2635 7.80742 15.6649 9.30885 15.6649 11.5109C15.6649 13.5629 14.1635 15.6148 12.1115 17.7168L0.350333 29.9284V35.7339Z" fill="#FF6700"/>
<path d="M38.8447 12.993V28.6079C36.7585 26.2056 33.6609 24.7516 29.4253 24.7516C21.1437 24.7516 14.3162 32.0216 14.3162 41.4411C14.3162 50.8606 21.1437 58.1307 29.4253 58.1307C33.6609 58.1307 36.7585 56.6767 38.8447 54.2744V57.2456H48.3274V12.993H38.8447ZM31.3218 49.1537C26.9598 49.1537 23.7989 46.1825 23.7989 41.4411C23.7989 36.6998 26.9598 33.7285 31.3218 33.7285C35.6838 33.7285 38.8447 36.6998 38.8447 41.4411C38.8447 46.1825 35.6838 49.1537 31.3218 49.1537Z" fill="black"/>
<path d="M64.1349 58.1307C73.4279 58.1307 80.8876 50.8606 80.8876 41.4411C80.8876 32.0216 73.4279 24.7516 64.1349 24.7516C54.8418 24.7516 47.3821 32.0216 47.3821 41.4411C47.3821 50.8606 54.8418 58.1307 64.1349 58.1307ZM64.1349 48.9008C60.0257 48.9008 56.8648 45.9296 56.8648 41.4411C56.8648 36.9526 60.0257 33.9814 64.1349 33.9814C68.244 33.9814 71.4049 36.9526 71.4049 41.4411C71.4049 45.9296 68.244 48.9008 64.1349 48.9008Z" fill="black"/>
</svg>
