<svg width="81" height="59" viewBox="0 0 81 59" fill="none" xmlns="http://www.w3.org/2000/svg">
<path d="M0.350333 35.7339H24.173V28.0266H12.4118L18.2173 22.1711C21.4203 18.968 23.6725 15.3646 23.6725 11.1606C23.6725 4.1039 18.0672 0 11.8112 0C6.95661 0 2.25214 2.45233 0 7.65727L6.75642 11.611C7.70732 9.40894 9.45899 7.80742 11.9113 7.80742C14.2635 7.80742 15.6649 9.30885 15.6649 11.5109C15.6649 13.5629 14.1635 15.6148 12.1115 17.7168L0.350333 29.9284V35.7339Z" fill="#FF6700"/>
<path d="M38.845 12.993V28.6079C36.7588 26.2056 33.6611 24.7516 29.4255 24.7516C21.1439 24.7516 14.3164 32.0216 14.3164 41.4411C14.3164 50.8606 21.1439 58.1307 29.4255 58.1307C33.6611 58.1307 36.7588 56.6767 38.845 54.2744V57.2456H48.3277V12.993H38.845ZM31.322 49.1537C26.96 49.1537 23.7991 46.1825 23.7991 41.4411C23.7991 36.6998 26.96 33.7285 31.322 33.7285C35.6841 33.7285 38.845 36.6998 38.845 41.4411C38.845 46.1825 35.6841 49.1537 31.322 49.1537Z" fill="white"/>
<path d="M64.1351 58.1307C73.4282 58.1307 80.8879 50.8606 80.8879 41.4411C80.8879 32.0216 73.4282 24.7516 64.1351 24.7516C54.8421 24.7516 47.3824 32.0216 47.3824 41.4411C47.3824 50.8606 54.8421 58.1307 64.1351 58.1307ZM64.1351 48.9008C60.0259 48.9008 56.865 45.9296 56.865 41.4411C56.865 36.9526 60.0259 33.9814 64.1351 33.9814C68.2443 33.9814 71.4052 36.9526 71.4052 41.4411C71.4052 45.9296 68.2443 48.9008 64.1351 48.9008Z" fill="white"/>
</svg>
