<svg width="18" height="18" viewBox="0 0 18 18" fill="none" xmlns="http://www.w3.org/2000/svg">
<path d="M8.07964 2.6687H2.57325C2.156 2.6687 1.75584 2.83445 1.46079 3.12949C1.16575 3.42454 1 3.8247 1 4.24195V15.2547C1 15.672 1.16575 16.0721 1.46079 16.3672C1.75584 16.6622 2.156 16.828 2.57325 16.828H13.586C14.0033 16.828 14.4034 16.6622 14.6985 16.3672C14.9935 16.0721 15.1593 15.672 15.1593 15.2547V9.74834M13.9793 1.48875C14.2923 1.17581 14.7167 1 15.1593 1C15.6018 1 16.0263 1.17581 16.3392 1.48875C16.6522 1.80169 16.828 2.22612 16.828 2.66869C16.828 3.11125 16.6522 3.53569 16.3392 3.84863L8.86626 11.3216L5.71976 12.1082L6.50638 8.9617L13.9793 1.48875Z" stroke="#222222" stroke-width="2" stroke-linecap="round" stroke-linejoin="round"/>
</svg>
